# This file uses centimeters as units for non-parametric coordinates.

g default
v -0.289396 0.698903 -0.279259
v -0.289396 0.559123 -0.279259
v -0.289396 0.419342 -0.279259
v -0.289396 0.279561 -0.279259
v -0.289396 0.139781 -0.279259
v -0.289396 -0.000000 -0.279259
v -0.173638 0.698903 -0.167555
v -0.173638 0.559123 -0.167555
v -0.173638 0.419342 -0.167555
v -0.173638 0.279561 -0.167555
v -0.173638 0.139781 -0.167555
v -0.173638 -0.000000 -0.167555
v -0.057879 0.698903 -0.055852
v -0.057879 0.559123 -0.055852
v -0.057879 0.419342 -0.055852
v -0.057879 0.279561 -0.055852
v -0.057879 0.139781 -0.055852
v -0.057879 -0.000000 -0.055852
v 0.057879 0.698903 0.055852
v 0.057879 0.559123 0.055852
v 0.057879 0.419342 0.055852
v 0.057879 0.279561 0.055852
v 0.057879 0.139781 0.055852
v 0.057879 0.000000 0.055852
v 0.173638 0.698903 0.167555
v 0.173638 0.559123 0.167555
v 0.173638 0.419342 0.167555
v 0.173638 0.279561 0.167555
v 0.173638 0.139781 0.167555
v 0.173638 0.000000 0.167555
v 0.289396 0.698903 0.279259
v 0.289396 0.559123 0.279259
v 0.289396 0.419342 0.279259
v 0.289396 0.279561 0.279259
v 0.289396 0.139781 0.279259
v 0.289396 0.000000 0.279259
vt 0.404910 0.797450
vt 0.438317 0.712237
vt 0.523530 0.745644
vt 0.490123 0.830856
vt 0.471724 0.627024
vt 0.556937 0.660431
vt 0.505131 0.541811
vt 0.590343 0.575218
vt 0.538538 0.456598
vt 0.623750 0.490005
vt 0.571944 0.371386
vt 0.657157 0.404793
vt 0.608742 0.779050
vt 0.575336 0.864263
vt 0.642149 0.693838
vt 0.675556 0.608625
vt 0.708963 0.523412
vt 0.742370 0.438199
vt 0.693955 0.812457
vt 0.660548 0.897670
vt 0.727362 0.727244
vt 0.760769 0.642032
vt 0.794176 0.556819
vt 0.827583 0.471606
vt 0.779168 0.845864
vt 0.745761 0.931077
vt 0.812575 0.760651
vt 0.845982 0.675438
vt 0.879388 0.590226
vt 0.912795 0.505013
vt 0.864381 0.879271
vt 0.830974 0.964484
vt 0.897788 0.794058
vt 0.931194 0.708845
vt 0.964601 0.623633
vt 0.998008 0.538420
vn -0.694391 0.000000 0.719598
vn -0.694391 0.000000 0.719598
vn -0.694391 0.000000 0.719598
vn -0.694391 0.000000 0.719598
vn -0.694391 0.000000 0.719598
vn -0.694391 0.000000 0.719598
vn -0.694391 0.000000 0.719598
vn -0.694391 0.000000 0.719598
vn -0.694391 0.000000 0.719598
vn -0.694391 0.000000 0.719598
vn -0.694391 0.000000 0.719598
vn -0.694391 0.000000 0.719598
vn -0.694391 0.000000 0.719598
vn -0.694391 0.000000 0.719598
vn -0.694391 0.000000 0.719598
vn -0.694391 -0.000000 0.719598
vn -0.694391 0.000000 0.719598
vn -0.694391 0.000000 0.719598
vn -0.694391 0.000000 0.719598
vn -0.694391 -0.000000 0.719598
vn -0.694391 0.000000 0.719598
vn -0.694391 -0.000000 0.719598
vn -0.694391 0.000000 0.719598
vn -0.694391 0.000000 0.719598
vn -0.694391 0.000000 0.719598
vn -0.694391 -0.000000 0.719598
vn -0.694391 0.000000 0.719598
vn -0.694391 0.000000 0.719598
vn -0.694391 -0.000000 0.719598
vn -0.694391 -0.000000 0.719598
vn -0.694391 0.000000 0.719598
vn -0.694391 0.000000 0.719598
vn -0.694391 0.000000 0.719598
vn -0.694391 0.000000 0.719598
vn -0.694391 -0.000000 0.719598
vn -0.694391 -0.000000 0.719598
s 1
g pPlane4
f 1/1/1 2/2/2 8/3/3 7/4/4
f 2/2/2 3/5/5 9/6/6 8/3/3
f 3/5/5 4/7/7 10/8/8 9/6/6
f 4/7/7 5/9/9 11/10/10 10/8/8
f 5/9/9 6/11/11 12/12/12 11/10/10
f 7/4/4 8/3/3 14/13/13 13/14/14
f 8/3/3 9/6/6 15/15/15 14/13/13
f 9/6/6 10/8/8 16/16/16 15/15/15
f 10/8/8 11/10/10 17/17/17 16/16/16
f 11/10/10 12/12/12 18/18/18 17/17/17
f 13/14/14 14/13/13 20/19/19 19/20/20
f 14/13/13 15/15/15 21/21/21 20/19/19
f 15/15/15 16/16/16 22/22/22 21/21/21
f 16/16/16 17/17/17 23/23/23 22/22/22
f 17/17/17 18/18/18 24/24/24 23/23/23
f 19/20/20 20/19/19 26/25/25 25/26/26
f 20/19/19 21/21/21 27/27/27 26/25/25
f 21/21/21 22/22/22 28/28/28 27/27/27
f 22/22/22 23/23/23 29/29/29 28/28/28
f 23/23/23 24/24/24 30/30/30 29/29/29
f 25/26/26 26/25/25 32/31/31 31/32/32
f 26/25/25 27/27/27 33/33/33 32/31/31
f 27/27/27 28/28/28 34/34/34 33/33/33
f 28/28/28 29/29/29 35/35/35 34/34/34
f 29/29/29 30/30/30 36/36/36 35/35/35
g default
v -0.502114 0.877443 0.052963
v -0.502114 0.701955 0.052963
v -0.502114 0.526466 0.052963
v -0.502114 0.350977 0.052963
v -0.502114 0.175489 0.052963
v -0.502114 0.000000 0.052963
v -0.301268 0.877443 0.031778
v -0.301268 0.701955 0.031778
v -0.301268 0.526466 0.031778
v -0.301268 0.350977 0.031778
v -0.301268 0.175489 0.031778
v -0.301268 0.000000 0.031778
v -0.100423 0.877443 0.010593
v -0.100423 0.701955 0.010593
v -0.100423 0.526466 0.010593
v -0.100423 0.350977 0.010593
v -0.100423 0.175489 0.010593
v -0.100423 0.000000 0.010593
v 0.100423 0.877443 -0.010593
v 0.100423 0.701955 -0.010593
v 0.100423 0.526466 -0.010593
v 0.100423 0.350977 -0.010593
v 0.100423 0.175489 -0.010593
v 0.100423 0.000000 -0.010593
v 0.301268 0.877443 -0.031778
v 0.301268 0.701955 -0.031778
v 0.301268 0.526466 -0.031778
v 0.301268 0.350977 -0.031778
v 0.301268 0.175489 -0.031778
v 0.301268 0.000000 -0.031778
v 0.502114 0.877443 -0.052963
v 0.502114 0.701955 -0.052963
v 0.502114 0.526466 -0.052963
v 0.502114 0.350977 -0.052963
v 0.502114 0.175489 -0.052963
v 0.502114 0.000000 -0.052963
vt 0.404910 0.797450
vt 0.438317 0.712237
vt 0.523530 0.745644
vt 0.490123 0.830856
vt 0.471724 0.627024
vt 0.556937 0.660431
vt 0.505131 0.541811
vt 0.590343 0.575218
vt 0.538538 0.456598
vt 0.623750 0.490005
vt 0.571944 0.371386
vt 0.657157 0.404793
vt 0.608742 0.779050
vt 0.575336 0.864263
vt 0.642149 0.693838
vt 0.675556 0.608625
vt 0.708963 0.523412
vt 0.742370 0.438199
vt 0.693955 0.812457
vt 0.660548 0.897670
vt 0.727362 0.727244
vt 0.760769 0.642032
vt 0.794176 0.556819
vt 0.827583 0.471606
vt 0.779168 0.845864
vt 0.745761 0.931077
vt 0.812575 0.760651
vt 0.845982 0.675438
vt 0.879388 0.590226
vt 0.912795 0.505013
vt 0.864381 0.879271
vt 0.830974 0.964484
vt 0.897788 0.794058
vt 0.931194 0.708845
vt 0.964601 0.623633
vt 0.998008 0.538420
vn 0.104898 0.000000 0.994483
vn 0.104898 0.000000 0.994483
vn 0.104898 0.000000 0.994483
vn 0.104898 0.000000 0.994483
vn 0.104898 0.000000 0.994483
vn 0.104898 0.000000 0.994483
vn 0.104898 0.000000 0.994483
vn 0.104898 0.000000 0.994483
vn 0.104898 0.000000 0.994483
vn 0.104898 0.000000 0.994483
vn 0.104898 0.000000 0.994483
vn 0.104898 0.000000 0.994483
vn 0.104898 0.000000 0.994483
vn 0.104898 0.000000 0.994483
vn 0.104898 0.000000 0.994483
vn 0.104898 0.000000 0.994483
vn 0.104898 0.000000 0.994483
vn 0.104898 0.000000 0.994483
vn 0.104898 0.000000 0.994483
vn 0.104898 0.000000 0.994483
vn 0.104898 0.000000 0.994483
vn 0.104898 0.000000 0.994483
vn 0.104898 0.000000 0.994483
vn 0.104898 0.000000 0.994483
vn 0.104898 0.000000 0.994483
vn 0.104898 0.000000 0.994483
vn 0.104898 0.000000 0.994483
vn 0.104898 0.000000 0.994483
vn 0.104898 0.000000 0.994483
vn 0.104898 0.000000 0.994483
vn 0.104898 0.000000 0.994483
vn 0.104898 0.000000 0.994483
vn 0.104898 0.000000 0.994483
vn 0.104898 0.000000 0.994483
vn 0.104898 0.000000 0.994483
vn 0.104898 0.000000 0.994483
s 1
g pPlane2
f 37/37/37 38/38/38 44/39/39 43/40/40
f 38/38/38 39/41/41 45/42/42 44/39/39
f 39/41/41 40/43/43 46/44/44 45/42/42
f 40/43/43 41/45/45 47/46/46 46/44/44
f 41/45/45 42/47/47 48/48/48 47/46/46
f 43/40/40 44/39/39 50/49/49 49/50/50
f 44/39/39 45/42/42 51/51/51 50/49/49
f 45/42/42 46/44/44 52/52/52 51/51/51
f 46/44/44 47/46/46 53/53/53 52/52/52
f 47/46/46 48/48/48 54/54/54 53/53/53
f 49/50/50 50/49/49 56/55/55 55/56/56
f 50/49/49 51/51/51 57/57/57 56/55/55
f 51/51/51 52/52/52 58/58/58 57/57/57
f 52/52/52 53/53/53 59/59/59 58/58/58
f 53/53/53 54/54/54 60/60/60 59/59/59
f 55/56/56 56/55/55 62/61/61 61/62/62
f 56/55/55 57/57/57 63/63/63 62/61/61
f 57/57/57 58/58/58 64/64/64 63/63/63
f 58/58/58 59/59/59 65/65/65 64/64/64
f 59/59/59 60/60/60 66/66/66 65/65/65
f 61/62/62 62/61/61 68/67/67 67/68/68
f 62/61/61 63/63/63 69/69/69 68/67/67
f 63/63/63 64/64/64 70/70/70 69/69/69
f 64/64/64 65/65/65 71/71/71 70/70/70
f 65/65/65 66/66/66 72/72/72 71/71/71
g default
v -0.279259 0.698903 0.289396
v -0.279259 0.559122 0.289396
v -0.279259 0.419342 0.289396
v -0.279259 0.279561 0.289396
v -0.279259 0.139781 0.289396
v -0.279259 -0.000000 0.289396
v -0.167555 0.698903 0.173638
v -0.167555 0.559122 0.173638
v -0.167555 0.419342 0.173638
v -0.167555 0.279561 0.173638
v -0.167555 0.139781 0.173638
v -0.167555 -0.000000 0.173638
v -0.055852 0.698903 0.057879
v -0.055852 0.559122 0.057879
v -0.055852 0.419342 0.057879
v -0.055852 0.279561 0.057879
v -0.055852 0.139781 0.057879
v -0.055852 -0.000000 0.057879
v 0.055852 0.698903 -0.057879
v 0.055852 0.559122 -0.057879
v 0.055852 0.419342 -0.057879
v 0.055852 0.279561 -0.057879
v 0.055852 0.139781 -0.057879
v 0.055852 0.000000 -0.057879
v 0.167555 0.698903 -0.173638
v 0.167555 0.559122 -0.173638
v 0.167555 0.419342 -0.173638
v 0.167555 0.279561 -0.173638
v 0.167555 0.139781 -0.173638
v 0.167555 0.000000 -0.173638
v 0.279259 0.698903 -0.289396
v 0.279259 0.559122 -0.289396
v 0.279259 0.419342 -0.289396
v 0.279259 0.279561 -0.289396
v 0.279259 0.139781 -0.289396
v 0.279259 0.000000 -0.289396
vt 0.001992 0.378026
vt 0.054138 0.302806
vt 0.129358 0.354951
vt 0.077212 0.430172
vt 0.106283 0.227586
vt 0.181503 0.279731
vt 0.158428 0.152366
vt 0.233649 0.204511
vt 0.210574 0.077145
vt 0.285794 0.129291
vt 0.262719 0.001925
vt 0.337940 0.054071
vt 0.204578 0.407097
vt 0.152432 0.482317
vt 0.256723 0.331877
vt 0.308869 0.256657
vt 0.361014 0.181436
vt 0.413160 0.106216
vt 0.279798 0.459242
vt 0.227653 0.534463
vt 0.331944 0.384022
vt 0.384089 0.308802
vt 0.436235 0.233582
vt 0.488380 0.158362
vt 0.355018 0.511388
vt 0.302873 0.586608
vt 0.407164 0.436168
vt 0.459309 0.360948
vt 0.511455 0.285727
vt 0.563600 0.210507
vt 0.430238 0.563533
vt 0.378093 0.638754
vt 0.482384 0.488313
vt 0.534529 0.413093
vt 0.586675 0.337873
vt 0.638820 0.262653
vn 0.719598 0.000000 0.694391
vn 0.719598 0.000000 0.694391
vn 0.719598 -0.000000 0.694391
vn 0.719598 -0.000000 0.694391
vn 0.719598 0.000000 0.694391
vn 0.719598 0.000000 0.694391
vn 0.719598 -0.000000 0.694391
vn 0.719598 0.000000 0.694391
vn 0.719598 -0.000000 0.694391
vn 0.719598 -0.000000 0.694391
vn 0.719598 -0.000000 0.694391
vn 0.719598 -0.000000 0.694391
vn 0.719598 -0.000000 0.694391
vn 0.719598 -0.000000 0.694391
vn 0.719598 0.000000 0.694391
vn 0.719598 0.000000 0.694391
vn 0.719598 -0.000000 0.694391
vn 0.719598 -0.000000 0.694391
vn 0.719598 -0.000000 0.694391
vn 0.719598 -0.000000 0.694391
vn 0.719598 0.000000 0.694391
vn 0.719598 0.000000 0.694391
vn 0.719598 -0.000000 0.694391
vn 0.719598 -0.000000 0.694391
vn 0.719598 0.000000 0.694391
vn 0.719598 0.000000 0.694391
vn 0.719598 -0.000000 0.694391
vn 0.719598 -0.000000 0.694391
vn 0.719598 0.000000 0.694391
vn 0.719598 -0.000000 0.694391
vn 0.719598 0.000000 0.694391
vn 0.719598 0.000000 0.694391
vn 0.719598 -0.000000 0.694391
vn 0.719598 -0.000000 0.694391
vn 0.719598 -0.000000 0.694391
vn 0.719598 -0.000000 0.694391
s 1
g pPlane3
f 73/73/73 74/74/74 80/75/75 79/76/76
f 74/74/74 75/77/77 81/78/78 80/75/75
f 75/77/77 76/79/79 82/80/80 81/78/78
f 76/79/79 77/81/81 83/82/82 82/80/80
f 77/81/81 78/83/83 84/84/84 83/82/82
f 79/76/76 80/75/75 86/85/85 85/86/86
f 80/75/75 81/78/78 87/87/87 86/85/85
f 81/78/78 82/80/80 88/88/88 87/87/87
f 82/80/80 83/82/82 89/89/89 88/88/88
f 83/82/82 84/84/84 90/90/90 89/89/89
f 85/86/86 86/85/85 92/91/91 91/92/92
f 86/85/85 87/87/87 93/93/93 92/91/91
f 87/87/87 88/88/88 94/94/94 93/93/93
f 88/88/88 89/89/89 95/95/95 94/94/94
f 89/89/89 90/90/90 96/96/96 95/95/95
f 91/92/92 92/91/91 98/97/97 97/98/98
f 92/91/91 93/93/93 99/99/99 98/97/97
f 93/93/93 94/94/94 100/100/100 99/99/99
f 94/94/94 95/95/95 101/101/101 100/100/100
f 95/95/95 96/96/96 102/102/102 101/101/101
f 97/98/98 98/97/97 104/103/103 103/104/104
f 98/97/97 99/99/99 105/105/105 104/103/103
f 99/99/99 100/100/100 106/106/106 105/105/105
f 100/100/100 101/101/101 107/107/107 106/106/106
f 101/101/101 102/102/102 108/108/108 107/107/107
g default
v 0.052963 0.877443 0.502114
v 0.052963 0.701955 0.502114
v 0.052963 0.526466 0.502114
v 0.052963 0.350977 0.502114
v 0.052963 0.175489 0.502114
v 0.052963 0.000000 0.502114
v 0.031778 0.877443 0.301268
v 0.031778 0.701955 0.301268
v 0.031778 0.526466 0.301268
v 0.031778 0.350977 0.301268
v 0.031778 0.175489 0.301268
v 0.031778 0.000000 0.301268
v 0.010593 0.877443 0.100423
v 0.010593 0.701955 0.100423
v 0.010593 0.526466 0.100423
v 0.010593 0.350977 0.100423
v 0.010593 0.175489 0.100423
v 0.010593 0.000000 0.100423
v -0.010593 0.877443 -0.100423
v -0.010593 0.701955 -0.100423
v -0.010593 0.526466 -0.100423
v -0.010593 0.350977 -0.100423
v -0.010593 0.175489 -0.100423
v -0.010593 0.000000 -0.100423
v -0.031778 0.877443 -0.301268
v -0.031778 0.701955 -0.301268
v -0.031778 0.526466 -0.301268
v -0.031778 0.350977 -0.301268
v -0.031778 0.175489 -0.301268
v -0.031778 0.000000 -0.301268
v -0.052963 0.877443 -0.502114
v -0.052963 0.701955 -0.502114
v -0.052963 0.526466 -0.502114
v -0.052963 0.350977 -0.502114
v -0.052963 0.175489 -0.502114
v -0.052963 0.000000 -0.502114
vt 0.001992 0.378026
vt 0.054138 0.302806
vt 0.129358 0.354951
vt 0.077212 0.430172
vt 0.106283 0.227586
vt 0.181503 0.279731
vt 0.158428 0.152366
vt 0.233649 0.204511
vt 0.210574 0.077145
vt 0.285794 0.129291
vt 0.262719 0.001925
vt 0.337940 0.054071
vt 0.204578 0.407097
vt 0.152432 0.482317
vt 0.256723 0.331877
vt 0.308869 0.256657
vt 0.361014 0.181436
vt 0.413160 0.106216
vt 0.279798 0.459242
vt 0.227653 0.534463
vt 0.331944 0.384022
vt 0.384089 0.308802
vt 0.436235 0.233582
vt 0.488380 0.158362
vt 0.355018 0.511388
vt 0.302873 0.586608
vt 0.407164 0.436168
vt 0.459309 0.360948
vt 0.511455 0.285727
vt 0.563600 0.210507
vt 0.430238 0.563533
vt 0.378093 0.638754
vt 0.482384 0.488313
vt 0.534529 0.413093
vt 0.586675 0.337873
vt 0.638820 0.262653
vn 0.994483 0.000000 -0.104898
vn 0.994483 0.000000 -0.104898
vn 0.994483 0.000000 -0.104898
vn 0.994483 0.000000 -0.104898
vn 0.994483 0.000000 -0.104898
vn 0.994483 0.000000 -0.104898
vn 0.994483 0.000000 -0.104898
vn 0.994483 0.000000 -0.104898
vn 0.994483 0.000000 -0.104898
vn 0.994483 0.000000 -0.104898
vn 0.994483 0.000000 -0.104898
vn 0.994483 0.000000 -0.104898
vn 0.994483 0.000000 -0.104898
vn 0.994483 0.000000 -0.104898
vn 0.994483 0.000000 -0.104898
vn 0.994483 0.000000 -0.104898
vn 0.994483 0.000000 -0.104898
vn 0.994483 0.000000 -0.104898
vn 0.994483 0.000000 -0.104898
vn 0.994483 0.000000 -0.104898
vn 0.994483 0.000000 -0.104898
vn 0.994483 0.000000 -0.104898
vn 0.994483 0.000000 -0.104898
vn 0.994483 0.000000 -0.104898
vn 0.994483 0.000000 -0.104898
vn 0.994483 0.000000 -0.104898
vn 0.994483 0.000000 -0.104898
vn 0.994483 0.000000 -0.104898
vn 0.994483 0.000000 -0.104898
vn 0.994483 0.000000 -0.104898
vn 0.994483 0.000000 -0.104898
vn 0.994483 0.000000 -0.104898
vn 0.994483 0.000000 -0.104898
vn 0.994483 0.000000 -0.104898
vn 0.994483 0.000000 -0.104898
vn 0.994483 0.000000 -0.104898
s 1
g pPlane1
f 109/109/109 110/110/110 116/111/111 115/112/112
f 110/110/110 111/113/113 117/114/114 116/111/111
f 111/113/113 112/115/115 118/116/116 117/114/114
f 112/115/115 113/117/117 119/118/118 118/116/116
f 113/117/117 114/119/119 120/120/120 119/118/118
f 115/112/112 116/111/111 122/121/121 121/122/122
f 116/111/111 117/114/114 123/123/123 122/121/121
f 117/114/114 118/116/116 124/124/124 123/123/123
f 118/116/116 119/118/118 125/125/125 124/124/124
f 119/118/118 120/120/120 126/126/126 125/125/125
f 121/122/122 122/121/121 128/127/127 127/128/128
f 122/121/121 123/123/123 129/129/129 128/127/127
f 123/123/123 124/124/124 130/130/130 129/129/129
f 124/124/124 125/125/125 131/131/131 130/130/130
f 125/125/125 126/126/126 132/132/132 131/131/131
f 127/128/128 128/127/127 134/133/133 133/134/134
f 128/127/127 129/129/129 135/135/135 134/133/133
f 129/129/129 130/130/130 136/136/136 135/135/135
f 130/130/130 131/131/131 137/137/137 136/136/136
f 131/131/131 132/132/132 138/138/138 137/137/137
f 133/134/134 134/133/133 140/139/139 139/140/140
f 134/133/133 135/135/135 141/141/141 140/139/139
f 135/135/135 136/136/136 142/142/142 141/141/141
f 136/136/136 137/137/137 143/143/143 142/142/142
f 137/137/137 138/138/138 144/144/144 143/143/143
