# This file uses centimeters as units for non-parametric coordinates.

v 7.744331 0.029807 -0.199312
v 9.689989 2.376632 -0.199312
v 7.744331 2.376632 -9.716302
v 9.689989 2.376632 -9.716302
v 7.744331 2.376632 -7.941317
v 9.689989 2.376632 -7.941317
v 7.744331 0.029807 -7.941317
v 2.737661 0.029807 -7.941317
v 2.737661 2.376632 -9.716302
v 7.744331 2.127971 -0.199312
v 7.744331 2.127971 -7.941317
v 2.737661 1.970351 -7.941317
v 7.585993 2.127971 -7.765126
v 7.585993 2.127971 -0.512806
v 2.895999 1.970351 -7.765126
v 7.777916 2.376632 -0.199312
v 7.744331 2.376632 -0.304665
v 7.744331 2.329135 -0.199312
v 7.585993 2.329135 -0.512806
v 7.633490 2.376632 -0.524120
v 7.585993 2.329135 -7.765126
v 7.633490 2.376632 -7.812622
v 2.737661 2.329135 -7.941317
v 2.801518 2.376632 -7.941317
v 2.737661 2.376632 -7.974903
v 2.917173 2.376632 -7.812622
v 2.895999 2.329135 -7.765126
vt 0.179147 0.024218
vt 0.184001 0.593918
vt 0.036974 0.594489
vt 0.032120 0.024789
vt 0.863497 0.687914
vt 0.256093 0.953912
vt 0.254777 0.066162
vt 0.270405 0.068186
vt 0.273966 0.023210
vt 0.288885 0.028893
vt 0.277272 0.069623
vt 0.278873 0.959639
vt 0.837907 0.709600
vt 0.530673 0.974737
vt 0.595364 0.977954
vt 0.593336 0.710292
vt 0.290683 0.042229
vt 0.294673 0.029065
vt 0.528352 0.027849
vt 0.593636 0.021526
vt 0.832126 0.023742
vt 0.836446 0.033108
vt 0.840184 0.023427
vt 0.853626 0.051035
vt 0.861202 0.048320
vt 0.236762 0.975548
vt 0.235355 0.027856
vt 0.916306 0.020114
vt 0.891746 0.041386
vt 0.176095 0.962380
vt 0.040113 0.962908
vt 0.881431 0.687919
vt 0.871475 0.010321
vt 0.905284 0.710276
vt 0.855691 0.694416
vt 0.271942 0.953856
vt 0.292484 0.975336
vt 0.839448 0.976601
vn 0.000000 1.000000 -0.000000
vn 0.000000 1.000000 0.000000
vn 0.000000 1.000000 0.000000
vn 0.000000 1.000000 0.000000
vn -1.000000 0.000000 0.000000
vn -1.000000 0.000000 0.000000
vn -1.000000 0.000000 0.000000
vn -1.000000 0.000000 0.000000
vn -0.000000 0.000000 1.000000
vn -0.000000 0.000000 1.000000
vn -0.000000 0.000000 1.000000
vn -0.000000 0.000000 1.000000
vn 0.000000 1.000000 0.000000
vn 0.000000 1.000000 0.000000
vn 0.000000 1.000000 0.000000
vn 0.000000 1.000000 -0.000000
vn 0.000000 -1.000000 0.000000
vn 0.000000 -1.000000 0.000000
vn 0.000000 -1.000000 0.000000
vn 0.000000 -1.000000 0.000000
vn 0.032493 -0.999472 0.000000
vn 0.032493 -0.999472 0.000000
vn 0.032493 -0.999472 0.000000
vn 0.032493 -0.999472 0.000000
vn 0.000000 1.000000 0.000000
vn 0.000000 1.000000 0.000000
vn 0.000000 1.000000 0.000000
vn -0.680512 0.667991 0.301150
vn -0.635468 0.703900 0.317339
vn -0.705545 0.708553 0.012599
vn -0.705545 0.708553 0.012599
vn -0.707103 0.707111 0.000000
vn -0.707103 0.707111 0.000000
vn 0.000000 0.707104 0.707110
vn 0.000000 0.707104 0.707110
vn 0.000000 0.707104 0.707110
vn 0.000000 0.707104 0.707110
vn -0.521840 0.701596 0.485229
vn -0.508273 0.683354 0.524104
vn -0.525937 0.707105 0.472644
vn -0.525937 0.707105 0.472644
vn -1.000000 0.000000 0.000000
vn -1.000000 0.000000 0.000000
vn -0.999781 0.000000 0.020923
vn -0.999781 0.000000 0.020923
vn 0.000000 0.000000 1.000000
vn 0.000000 0.000000 1.000000
vn 0.000000 0.000000 1.000000
vn 0.000000 0.000000 1.000000
vn -0.892608 0.000000 0.450834
vn -0.892608 0.000000 0.450834
vn 0.000000 1.000000 0.000000
vn 0.000000 1.000000 -0.000000
vn 0.000000 1.000000 -0.000000
vn -0.743786 0.000000 0.668418
vn -0.743786 0.000000 0.668418
vn -0.743786 0.000000 0.668418
vn -0.743786 0.000000 0.668418
vn -0.790174 0.558727 0.251890
vn -0.394588 0.530504 0.750244
f 5/13/1 6/38/2 4/15/3 3/16/4
f 10/1/5 11/2/6 7/3/7 1/4/8
f 7/3/9 11/2/10 12/30/11 8/31/12
f 5/13/1 3/16/13 9/20/14 25/21/15 24/22/16
f 11/26/17 10/27/18 14/7/19 13/6/20
f 12/28/21 11/34/22 13/32/23 15/29/24
f 17/17/25 16/18/26 2/19/27 6/14/2 5/37/1
f 18/10/28 17/17/29 20/11/30 19/8/31
f 19/8/31 20/11/30 22/12/32 21/36/33
f 21/5/34 22/35/35 26/24/36 27/25/37
f 24/22/38 23/23/39 27/25/40 26/24/41
f 21/36/42 13/6/43 14/7/44 19/8/45
f 15/29/46 13/32/47 21/5/48 27/25/49
f 10/9/50 18/10/51 19/8/45 14/7/44
f 20/11/52 17/17/25 5/37/1 22/12/53
f 5/13/1 24/22/16 26/24/54 22/35/53
f 27/25/55 23/23/56 12/33/57 15/29/58
f 16/18/59 17/17/29 18/10/28
f 23/23/39 24/22/38 25/21/60
